<?xml version="1.0" encoding="UTF-8" standalone="no"?>
<svg width="400px" height="172px" viewBox="0 0 400 172" version="1.1" xmlns="http://www.w3.org/2000/svg" xmlns:xlink="http://www.w3.org/1999/xlink" xmlns:sketch="http://www.bohemiancoding.com/sketch/ns">
    <!-- Generator: Sketch 3.4.4 (17249) - http://www.bohemiancoding.com/sketch -->
    <title>Star_Wars_Logo</title>
    <desc>Created with Sketch.</desc>
    <defs></defs>
    <g id="Page-1" stroke="none" stroke-width="1" fill="none" fill-rule="evenodd" sketch:type="MSPage">
        <g id="starWars" sketch:type="MSLayerGroup" fill="#FFE81F">
            <g id="Star_Wars_Logo" sketch:type="MSShapeGroup">
                <g id="Page-1">
                    <g id="Star_Wars_Logo">
                        <path d="M75.2943396,93.2119497 L80.7471698,109.225157 C83.6974843,117.884277 86.3314465,124.809434 86.6748428,124.809434 C86.6805031,124.809434 86.6855346,124.806918 86.6899371,124.803145 C87.0672956,124.469811 97.7402516,93.4754717 97.7402516,93.4754717 L118.425786,93.4754717 L93.4698113,166.191824 L79.0924528,166.191824 C79.0924528,166.191824 63.7465409,121.87044 63.809434,121.701887 L47.790566,165.633333 L33.5578616,165.633333 L8.9163522,93.2119497 L29.5012579,93.2251572 C29.5012579,93.2251572 40.7773585,125.18805 40.927673,125.18805 C40.9283019,125.18805 40.9283019,125.187421 40.9289308,125.186792 L52.1805031,93.2113208 L75.2943396,93.2113208 L75.2943396,93.2119497 L75.2943396,93.2119497 Z M1.88867925,88.1761006 L4.15345912,94.8327044 L28.7949686,167.253459 L29.9553459,170.66478 L33.5584906,170.66478 L47.791195,170.66478 L51.3119497,170.66478 L52.518239,167.356604 L63.6408805,136.853459 C64.5993711,139.642138 65.6352201,142.647799 66.6710692,145.650943 C70.5006289,156.754717 74.3383648,167.837736 74.3383648,167.837736 L75.5106918,171.22327 L79.0930818,171.22327 L93.4704403,171.22327 L97.0628931,171.22327 L98.2289308,167.825157 L123.184906,95.109434 L125.472327,88.4440252 L118.425786,88.4440252 L97.7402516,88.4440252 L94.1515723,88.4440252 L92.9830189,91.8377358 C91.1125786,97.2685535 88.6301887,104.435849 86.5075472,110.501887 C86.1874214,109.581761 85.8540881,108.614465 85.509434,107.601887 L80.0572327,91.5893082 L78.8962264,88.1798742 L75.2943396,88.1798742 L52.1811321,88.1798742 L48.6176101,88.1798742 L47.4345912,91.5415094 L40.8603774,110.224528 C38.6886792,104.120126 36.1710692,97.0062893 34.2465409,91.5509434 L33.0628931,88.1962264 L29.5050314,88.1937107 L8.92012579,88.1805031 L1.88867925,88.1761006 L1.88867925,88.1761006 L1.88867925,88.1761006 L1.88867925,88.1761006 Z" id="Shape"></path>
                        <path d="M393.872956,92.9295597 L393.825786,111.989308 C393.825786,111.989308 373.295597,111.920755 362.857862,111.920755 C359.385535,111.920755 357.030189,111.928931 356.918239,111.949057 C355.119497,112.27673 353.974214,116.101258 354.484277,117.779874 C354.73522,118.628931 356.616981,121.402516 358.654088,123.949686 C360.684906,126.497484 364.025157,130.667296 366.062893,133.213208 C371.294969,139.742138 372.012579,141.030818 372.496226,144.779874 C373.28239,150.868553 370.402516,157.459119 365.056604,161.805031 C359.699371,166.163522 359.933962,166.19434 320.161635,166.19434 L318.415094,166.19434 C294.226415,166.18805 281.433962,165.987421 279.571698,165.572327 C276.263522,164.823899 270.993082,160.522013 257.062264,147.157233 C252.051572,142.354717 247.433962,138.149686 247.196855,138.148428 C247.190566,138.148428 247.187421,138.152201 247.187421,138.158491 L247.02327,166.195597 L224.445283,166.095597 L224.306289,93.7811321 L252.778616,93.7811321 L274.659119,93.7811321 C289.83522,94.3289308 300.10566,109.447799 298.061635,119.089308 C297.596226,121.277358 296.413836,124.448428 295.432075,126.133333 C293.413208,129.592453 288.274843,134.032704 284.104403,135.938994 C282.564151,136.635849 281.306289,137.44717 281.306289,137.736478 C281.306289,138.81195 286.376101,143.805031 288.274843,144.598113 C289.896855,145.27673 294.620755,145.427673 315.450943,145.427673 C317.892453,145.427673 320.110063,145.428931 322.122642,145.428931 C343.061635,145.428931 342.008176,145.277987 343.625786,141.818239 C344.758491,139.409434 343.896855,137.969182 335.928302,128.99434 C325.833333,118.949686 326.890566,114.138365 326.821384,110.584906 C326.677358,106.327044 330.030189,92.9314465 347.457862,92.9314465 L393.872956,92.9295597 L393.872956,92.9295597 L393.872956,92.9295597 Z M258.608805,126.338365 C268.275472,126.338365 270.237736,126.18805 272.294969,125.29434 C279.238365,122.275472 279.609434,113.357862 272.949057,109.400629 C271.490566,108.532075 269.615723,108.388679 259.137736,108.331447 L247.012579,108.267925 C247.112579,108.362264 246.974214,125.607547 246.974214,125.607547 C246.974214,125.607547 250.011321,126.338365 258.608805,126.338365 L258.608805,126.338365 L258.608805,126.338365 Z M398.916352,87.8981132 L393.871698,87.8981132 L347.456604,87.8981132 C337.373585,87.8981132 331.409434,91.8779874 328.18239,95.2169811 C322.932704,100.646541 321.696226,107.483648 321.791195,110.706918 C321.796226,110.975472 321.793082,111.250943 321.789937,111.538365 C321.744025,116.77673 322.515723,122.706918 332.267296,132.447799 C334.194969,134.618868 337.420126,138.258491 338.638994,140.067296 C335.973585,140.394969 329.21761,140.394969 322.122013,140.394969 L319.108176,140.394969 L315.450314,140.393711 C302.932075,140.393711 292.376101,140.357862 290.212579,139.930818 C289.910063,139.733333 289.485535,139.393711 289.018868,138.988679 C293.344025,136.325157 297.716981,132.196855 299.776101,128.666667 C301.025786,126.520126 302.403774,122.853459 302.98239,120.133333 C304.265409,114.079874 302.149057,106.777358 297.321384,100.593711 C291.688679,93.3792453 283.49434,89.0628931 274.839623,88.7509434 L274.748428,88.7471698 L274.657233,88.7471698 L252.77673,88.7471698 L224.304403,88.7471698 L219.262893,88.7471698 L219.272956,93.7893082 L219.41195,166.103145 L219.422013,171.102516 L224.421384,171.124528 L246.999371,171.224528 L252.02327,171.246541 L252.05283,166.222642 L252.150314,149.426415 C252.611321,149.864151 253.08805,150.318868 253.577358,150.78805 C268.814465,165.404403 273.928931,169.454088 278.459119,170.478616 C279.703774,170.755975 281.762893,171.215723 318.410692,171.225786 L320.158491,171.225786 C339.998742,171.225786 349.957233,171.225786 355.881132,170.653459 C362.666667,169.997484 364.849057,168.458491 368.120755,165.794969 L368.22956,165.706289 C374.949686,160.242767 378.495597,151.97673 377.484277,144.133962 C376.825157,139.033333 375.475472,136.914465 369.986164,130.066038 L368.354717,128.028302 C366.442767,125.638994 364.132704,122.753459 362.584277,120.811321 C361.33522,119.249057 360.354088,117.862264 359.762264,116.954088 C360.539623,116.952201 361.549057,116.950943 362.855346,116.950943 C373.166667,116.950943 393.601887,117.018868 393.806918,117.020126 L398.843396,117.036478 L398.855975,112 L398.903145,92.9396226 L398.916352,87.8981132 L398.916352,87.8981132 L398.916352,87.8981132 L398.916352,87.8981132 Z M252.037107,121.12327 C252.045283,119.852201 252.05283,118.427044 252.061006,116.999371 C252.067296,115.741509 252.072956,114.481132 252.074843,113.326415 L259.110692,113.362893 C263.154088,113.384906 269.238365,113.418239 270.424528,113.754717 C271.938365,114.673585 272.783019,116.09434 272.691195,117.566038 C272.640881,118.361006 272.262264,119.822642 270.28805,120.679874 C269.187421,121.157862 267.432704,121.306918 258.608805,121.306918 C255.810063,121.306918 253.650943,121.225786 252.037107,121.12327 L252.037107,121.12327 L252.037107,121.12327 L252.037107,121.12327 Z" id="Shape"></path>
                        <path d="M178.558491,92.6333333 L203.898113,165.538994 L183.250314,165.633333 L179.822642,154.683648 L142.904403,154.387421 L139.646541,165.350314 L119.206289,165.135849 L144.225157,92.6647799 L178.558491,92.6333333 L178.558491,92.6333333 L178.558491,92.6333333 Z M161.954088,103.322642 C161.901887,103.532075 158.718868,112.265409 155.525157,120.998113 C152.305031,129.803145 149.074214,138.608176 149.02956,138.67673 C149.02956,138.677358 149.028931,138.677358 149.02956,138.677358 L149.02956,138.677358 C149.02956,138.677358 149.02956,138.677358 149.02956,138.67673 C149.115094,138.651572 160.549057,138.626415 167.877358,138.626415 C171.306918,138.626415 173.836478,138.632075 173.883648,138.644654 C173.884277,138.64717 173.884277,138.647799 173.884277,138.647799 L173.884277,138.645912 C173.884277,138.645912 173.884277,138.645912 173.883648,138.644654 C173.755346,138.31195 161.991195,103.747799 161.954088,103.322642 C161.954717,103.320126 161.954717,103.318868 161.954717,103.318868 L161.954717,103.318868 C161.954088,103.318868 161.954088,103.320126 161.954088,103.322642 L161.954088,103.322642 L161.954088,103.322642 Z M182.13522,87.5987421 L178.554717,87.6018868 L144.221384,87.6339623 L140.638994,87.6371069 L139.469811,91.0245283 L114.450943,163.495597 L112.172327,170.095597 L119.154717,170.167925 L139.594969,170.38239 L143.389308,170.422013 L144.47044,166.785535 L146.650314,159.450943 L176.118239,159.686792 L178.450314,167.138365 L179.560377,170.684277 L183.275472,170.667925 L203.922642,170.573585 L210.963522,170.540881 L208.651572,163.890566 L183.31195,90.9849057 L182.13522,87.5987421 L182.13522,87.5987421 L182.13522,87.5987421 L182.13522,87.5987421 Z M156.271698,133.6 C157.224528,131.003145 158.508176,127.493082 160.250943,122.726415 C160.797484,121.232075 161.297484,119.864151 161.755975,118.610063 C162.172956,119.840252 162.627044,121.178616 163.120126,122.633962 C163.526415,123.832704 165.31195,129.093082 166.843396,133.594969 C162.289937,133.594969 158.862264,133.595597 156.271698,133.6 L156.271698,133.6 L156.271698,133.6 L156.271698,133.6 Z" id="Shape"></path>
                        <path d="M187.099371,5.61509434 L187.099371,23.6025157 L151.074214,23.6025157 L151.074214,78.6150943 L129.596226,78.6150943 L129.596226,23.5584906 L87.5459119,23.6779874 C82.4767296,23.6779874 81.7974843,27.7157233 81.7974843,29.2628931 C81.7974843,31.1622642 83.036478,33.0616352 89.8415094,41.6779874 C94.2566038,47.2754717 98.3132075,52.8603774 98.8477987,54.0805031 C101.766038,60.7974843 97.9924528,71.2628931 91.118239,75.5144654 C86.2188679,78.5415094 87.0559748,78.6157233 50.672956,78.6157233 L44.7660377,78.6157233 L5.60251572,78.6157233 L5.60251572,58.4081761 L67.1748428,58.4081761 L68.9924528,57.1440252 C70.2188679,56.2886792 70.9295597,55.1125786 71.2,53.5025157 C71.5773585,51.1880503 71.3823899,50.8861635 63.7786164,42.3201258 C54.791195,32.1943396 53.8415094,30.345283 54.3069182,23.8798742 C54.8352201,16.5025157 61.4138365,5.78553459 72.9106918,5.78553459 L187.099371,5.61509434 L187.099371,5.61509434 L187.099371,5.61509434 Z M192.130818,0.576100629 L187.091195,0.583647799 L72.9025157,0.753459119 C66.3251572,0.753459119 60.2163522,3.59496855 55.7062893,8.75471698 C52.0496855,12.9383648 49.6496855,18.4584906 49.2874214,23.5201258 C48.6754717,32.0176101 50.6314465,35.0880503 60.0144654,45.6597484 C62.7377358,48.727044 65.327044,51.6446541 66.191195,52.8836478 C66.1773585,52.9333333 66.1647799,52.9654088 66.1572327,52.9836478 C66.1477987,52.991195 66.1333333,53.0025157 66.1132075,53.0163522 L65.5962264,53.3761006 L5.60251572,53.3761006 L0.571069182,53.3761006 L0.571069182,58.4075472 L0.571069182,78.6150943 L0.571069182,83.6465409 L5.60251572,83.6465409 L44.7660377,83.6465409 L47.8710692,83.6465409 L50.672956,83.6465409 C68.6113208,83.6465409 77.4654088,83.6295597 82.681761,83.2471698 C88.6503145,82.8100629 90.554717,81.7861635 93.4075472,80.0144654 L93.763522,79.7937107 C102.733333,74.2459119 107.355975,61.0345912 103.462893,52.0742138 C102.261635,49.3333333 94.6559748,39.6553459 93.7924528,38.5610063 C91.4050314,35.5377358 87.4641509,30.5484277 86.8402516,29.1044025 C86.8553459,28.9830189 86.8849057,28.8572327 86.9163522,28.7698113 C87.0201258,28.7433962 87.2188679,28.7081761 87.5459119,28.7081761 L124.56478,28.6031447 L124.56478,78.6138365 L124.56478,83.645283 L129.596226,83.645283 L151.074214,83.645283 L156.10566,83.645283 L156.10566,78.6138365 L156.10566,28.6327044 L187.099371,28.6327044 L192.130818,28.6327044 L192.130818,23.6012579 L192.130818,5.61383648 L192.130818,0.576100629 L192.130818,0.576100629 L192.130818,0.576100629 L192.130818,0.576100629 Z" id="Shape"></path>
                        <path d="M245.627673,6.19937107 L270.898113,79.2937107 L250.28805,79.1805031 L246.942138,68.2308176 L210.18805,68.0672956 L206.904403,78.6144654 L185.91761,78.6144654 L210.910692,6.19937107 L245.627673,6.19937107 L245.627673,6.19937107 L245.627673,6.19937107 Z M216.186792,52.5018868 L241.218868,52.4704403 C241.219497,52.4704403 241.219497,52.4710692 241.219497,52.4710692 C241.305031,52.4710692 229.054717,16.4955975 228.972956,16.4704403 L228.972956,16.4704403 C228.883648,16.4672956 215.904403,52.5018868 216.186792,52.5018868 L216.186792,52.5018868 L216.186792,52.5018868 Z M249.21195,1.16792453 L245.627673,1.16792453 L210.910692,1.16792453 L207.325157,1.16792453 L206.155346,4.55786164 L181.161635,76.9735849 L178.858491,83.6465409 L185.918239,83.6465409 L206.90566,83.6465409 L210.609434,83.6465409 L211.710063,80.1100629 L213.886792,73.1157233 L243.215094,73.2459119 L245.478616,80.6509434 L246.561006,84.191195 L250.263522,84.2119497 L270.873585,84.3251572 L277.978616,84.3641509 L275.657233,77.6496855 L250.386792,4.55534591 L249.21195,1.16792453 L249.21195,1.16792453 L249.21195,1.16792453 L249.21195,1.16792453 Z M223.17673,47.4616352 C224.728931,43.0421384 226.889937,36.9855346 228.845912,31.5421384 C230.7,36.9786164 232.750943,43.0169811 234.24717,47.4477987 L223.17673,47.4616352 L223.17673,47.4616352 L223.17673,47.4616352 L223.17673,47.4616352 Z" id="Shape"></path>
                        <path d="M316.601258,6.19937107 C332.903774,6.19937107 344.21761,6.43207547 346.393711,6.80943396 C351.425157,7.6836478 355.972327,10.3691824 359.381132,14.4949686 C362.94717,18.809434 363.76478,20.872327 364.230189,26.7842767 C364.897484,35.1301887 360.928302,42.3314465 353.098113,47.0044025 C350.815094,48.3691824 348.469811,49.6962264 347.884277,49.9603774 C346.984906,50.3691824 347.105031,50.7591195 348.714465,52.6459119 C349.751572,53.8597484 351.550943,55.5893082 352.708176,56.4886792 L354.821384,58.1301887 L393.865409,58.6899371 L394.248428,78.6144654 L370.310692,78.6144654 C351.795597,78.6144654 345.87044,78.4446541 344.134591,77.8597484 C341.537107,76.9792453 335.286164,71.6836478 322.580503,59.5955975 L313.511321,50.9666667 L313.606918,78.6144654 L290.309434,78.6144654 L290.309434,6.19937107 L316.601258,6.19937107 L316.601258,6.19937107 L316.601258,6.19937107 Z M313.168553,38.7591195 L325.540252,38.7591195 C337.578616,38.7591195 337.954717,38.7213836 339.672327,37.4320755 C342.742138,35.1301887 343.828931,32.7591195 343.503145,29.1176101 C343.169811,25.3628931 341.72327,23.4069182 338.093711,21.8345912 C336.049686,20.9415094 334.080503,20.7968553 324.432704,20.7968553 L313.168553,20.7968553 L313.168553,38.7591195 L313.168553,38.7591195 L313.168553,38.7591195 Z M316.601258,1.16792453 L290.31195,1.16792453 L285.280503,1.16792453 L285.280503,6.19937107 L285.280503,78.6144654 L285.280503,83.6459119 L290.31195,83.6459119 L313.609434,83.6459119 L318.658491,83.6459119 L318.640881,78.5968553 L318.585535,62.7377358 L319.113836,63.2402516 C334.828302,78.1918239 339.463522,81.5880503 342.521384,82.6245283 C344.869182,83.4163522 348.799371,83.6459119 370.312579,83.6459119 L394.250314,83.6459119 L399.378616,83.6459119 L399.280503,78.5176101 L398.897484,58.5930818 L398.804403,53.7289308 L393.940252,53.6591195 L356.580503,53.1238994 L355.797484,52.5157233 C355.548428,52.3213836 355.246541,52.0647799 354.923899,51.7742138 C355.204403,51.6081761 355.461006,51.4553459 355.683019,51.3232704 C365.118868,45.6924528 370.064151,36.6018868 369.248428,26.3842767 C368.70566,19.4918239 367.474843,16.3867925 363.261006,11.2899371 C359.120126,6.27798742 353.436478,2.92641509 347.256604,1.85283019 C343.822642,1.2572327 326.57673,1.16792453 316.601258,1.16792453 L316.601258,1.16792453 L316.601258,1.16792453 L316.601258,1.16792453 Z M318.2,25.8283019 L324.432704,25.8283019 C333.254717,25.8283019 335.002516,25.9748428 336.079245,26.445283 C338.12327,27.3308176 338.330818,27.7603774 338.491195,29.5628931 C338.652201,31.3540881 338.430189,32.0748428 336.653459,33.4069182 C336.594969,33.4503145 336.550314,33.4842767 336.513208,33.5113208 C335.340252,33.7283019 330.987421,33.7283019 325.540252,33.7283019 L318.200629,33.7283019 L318.2,25.8283019 L318.2,25.8283019 L318.2,25.8283019 L318.2,25.8283019 Z" id="Shape"></path>
                    </g>
                </g>
            </g>
        </g>
    </g>
</svg>